<?xml version="1.0" encoding="UTF-8"?><svg id="_レイヤー_2" xmlns="http://www.w3.org/2000/svg" viewBox="0 0 2043.38 1053.48"><defs><style>.cls-1{fill:#8c6d49;}.cls-1,.cls-2,.cls-3{stroke-width:0px;}.cls-2{fill:#c3a984;}.cls-3{fill:#a58c63;}</style></defs><g id="_レイヤー_3"><rect class="cls-3" y="425.54" width="63.56" height="627.94"/><rect class="cls-3" x="1979.82" y="425.54" width="63.56" height="627.94"/><rect class="cls-3" x="1829.61" y=".11" width="63.56" height="627.94"/><rect class="cls-3" x="159.93" y=".11" width="63.56" height="627.94"/><polygon class="cls-1" points="252.39 544.63 252.39 40.16 223.5 40.16 223.5 628.05 223.69 627.64 252.39 544.63"/><polygon class="cls-1" points="1829.61 626.99 1829.61 40.16 1800.71 40.16 1800.71 543.52 1829.61 626.99"/><polygon class="cls-2" points="2043.19 425.43 .34 425.43 154.03 0 1895.12 0 2043.19 425.43"/><polygon class="cls-1" points="1979.52 1052.81 1979.82 1053.48 1979.82 465.59 1950.93 465.59 1950.93 970.2 1979.52 1052.81"/><polygon class="cls-1" points="92.46 970.5 92.46 465.59 63.56 465.59 63.56 1053.48 64.35 1051.76 92.46 970.5"/><rect class="cls-3" y="425.54" width="2042.84" height="40.06"/></g></svg>